<?xml version="1.0" encoding="UTF-8" standalone="no"?><svg xmlns="http://www.w3.org/2000/svg" xmlns:xlink="http://www.w3.org/1999/xlink" contentScriptType="application/ecmascript" contentStyleType="text/css" height="368px" preserveAspectRatio="none" style="width:513px;height:368px;" version="1.1" viewBox="0 0 513 368" width="513px" zoomAndPan="magnify"><defs><filter height="300%" id="f1s7kueemji9u2" width="300%" x="-1" y="-1"><feGaussianBlur result="blurOut" stdDeviation="2.0"/><feColorMatrix in="blurOut" result="blurOut2" type="matrix" values="0 0 0 0 0 0 0 0 0 0 0 0 0 0 0 0 0 0 .4 0"/><feOffset dx="4.0" dy="4.0" in="blurOut2" result="blurOut3"/><feBlend in="SourceGraphic" in2="blurOut3" mode="normal"/></filter></defs><g><line style="stroke: #A80036; stroke-width: 1.0; stroke-dasharray: 5.0,5.0;" x1="30" x2="30" y1="86.2969" y2="281.0938"/><line style="stroke: #A80036; stroke-width: 1.0; stroke-dasharray: 5.0,5.0;" x1="149" x2="149" y1="86.2969" y2="281.0938"/><line style="stroke: #A80036; stroke-width: 1.0; stroke-dasharray: 5.0,5.0;" x1="258" x2="258" y1="86.2969" y2="281.0938"/><line style="stroke: #A80036; stroke-width: 1.0; stroke-dasharray: 5.0,5.0;" x1="382" x2="382" y1="86.2969" y2="281.0938"/><line style="stroke: #A80036; stroke-width: 1.0; stroke-dasharray: 5.0,5.0;" x1="461" x2="461" y1="86.2969" y2="281.0938"/><text fill="#000000" font-family="sans-serif" font-size="14" lengthAdjust="spacingAndGlyphs" textLength="39" x="8" y="82.9951">Client</text><ellipse cx="30.5" cy="13" fill="#FEFECE" filter="url(#f1s7kueemji9u2)" rx="8" ry="8" style="stroke: #A80036; stroke-width: 2.0;"/><path d="M30.5,21 L30.5,48 M17.5,29 L43.5,29 M30.5,48 L17.5,63 M30.5,48 L43.5,63 " fill="none" filter="url(#f1s7kueemji9u2)" style="stroke: #A80036; stroke-width: 2.0;"/><text fill="#000000" font-family="sans-serif" font-size="14" lengthAdjust="spacingAndGlyphs" textLength="39" x="8" y="293.0889">Client</text><ellipse cx="30.5" cy="306.3906" fill="#FEFECE" filter="url(#f1s7kueemji9u2)" rx="8" ry="8" style="stroke: #A80036; stroke-width: 2.0;"/><path d="M30.5,314.3906 L30.5,341.3906 M17.5,322.3906 L43.5,322.3906 M30.5,341.3906 L17.5,356.3906 M30.5,341.3906 L43.5,356.3906 " fill="none" filter="url(#f1s7kueemji9u2)" style="stroke: #A80036; stroke-width: 2.0;"/><rect fill="#FEFECE" filter="url(#f1s7kueemji9u2)" height="30.2969" style="stroke: #A80036; stroke-width: 1.5;" width="35" x="130" y="51"/><text fill="#000000" font-family="sans-serif" font-size="14" lengthAdjust="spacingAndGlyphs" textLength="21" x="137" y="70.9951">DB</text><rect fill="#FEFECE" filter="url(#f1s7kueemji9u2)" height="30.2969" style="stroke: #A80036; stroke-width: 1.5;" width="35" x="130" y="280.0938"/><text fill="#000000" font-family="sans-serif" font-size="14" lengthAdjust="spacingAndGlyphs" textLength="21" x="137" y="300.0889">DB</text><rect fill="#FEFECE" filter="url(#f1s7kueemji9u2)" height="30.2969" style="stroke: #A80036; stroke-width: 1.5;" width="63" x="225" y="51"/><text fill="#000000" font-family="sans-serif" font-size="14" lengthAdjust="spacingAndGlyphs" textLength="49" x="232" y="70.9951">DBImpl</text><rect fill="#FEFECE" filter="url(#f1s7kueemji9u2)" height="30.2969" style="stroke: #A80036; stroke-width: 1.5;" width="63" x="225" y="280.0938"/><text fill="#000000" font-family="sans-serif" font-size="14" lengthAdjust="spacingAndGlyphs" textLength="49" x="232" y="300.0889">DBImpl</text><rect fill="#FEFECE" filter="url(#f1s7kueemji9u2)" height="30.2969" style="stroke: #A80036; stroke-width: 1.5;" width="43" x="359" y="51"/><text fill="#000000" font-family="sans-serif" font-size="14" lengthAdjust="spacingAndGlyphs" textLength="29" x="366" y="70.9951">WAL</text><rect fill="#FEFECE" filter="url(#f1s7kueemji9u2)" height="30.2969" style="stroke: #A80036; stroke-width: 1.5;" width="43" x="359" y="280.0938"/><text fill="#000000" font-family="sans-serif" font-size="14" lengthAdjust="spacingAndGlyphs" textLength="29" x="366" y="300.0889">WAL</text><rect fill="#FEFECE" filter="url(#f1s7kueemji9u2)" height="30.2969" style="stroke: #A80036; stroke-width: 1.5;" width="86" x="416" y="51"/><text fill="#000000" font-family="sans-serif" font-size="14" lengthAdjust="spacingAndGlyphs" textLength="72" x="423" y="70.9951">MemTable</text><rect fill="#FEFECE" filter="url(#f1s7kueemji9u2)" height="30.2969" style="stroke: #A80036; stroke-width: 1.5;" width="86" x="416" y="280.0938"/><text fill="#000000" font-family="sans-serif" font-size="14" lengthAdjust="spacingAndGlyphs" textLength="72" x="423" y="300.0889">MemTable</text><polygon fill="#A80036" points="137.5,113.4297,147.5,117.4297,137.5,121.4297,141.5,117.4297" style="stroke: #A80036; stroke-width: 1.0;"/><line style="stroke: #A80036; stroke-width: 1.0;" x1="30.5" x2="143.5" y1="117.4297" y2="117.4297"/><text fill="#000000" font-family="sans-serif" font-size="13" lengthAdjust="spacingAndGlyphs" textLength="95" x="37.5" y="112.3638">Put(key, value)</text><polygon fill="#A80036" points="246.5,142.5625,256.5,146.5625,246.5,150.5625,250.5,146.5625" style="stroke: #A80036; stroke-width: 1.0;"/><line style="stroke: #A80036; stroke-width: 1.0;" x1="149.5" x2="252.5" y1="146.5625" y2="146.5625"/><text fill="#000000" font-family="sans-serif" font-size="13" lengthAdjust="spacingAndGlyphs" textLength="43" x="156.5" y="141.4966">Put(...)</text><polygon fill="#A80036" points="370.5,171.6953,380.5,175.6953,370.5,179.6953,374.5,175.6953" style="stroke: #A80036; stroke-width: 1.0;"/><line style="stroke: #A80036; stroke-width: 1.0;" x1="258.5" x2="376.5" y1="175.6953" y2="175.6953"/><text fill="#000000" font-family="sans-serif" font-size="13" lengthAdjust="spacingAndGlyphs" textLength="100" x="265.5" y="170.6294">Append(record)</text><polygon fill="#A80036" points="449,200.8281,459,204.8281,449,208.8281,453,204.8281" style="stroke: #A80036; stroke-width: 1.0;"/><line style="stroke: #A80036; stroke-width: 1.0;" x1="258.5" x2="455" y1="204.8281" y2="204.8281"/><text fill="#000000" font-family="sans-serif" font-size="13" lengthAdjust="spacingAndGlyphs" textLength="99" x="265.5" y="199.7622">Add(key, value)</text><polygon fill="#A80036" points="160.5,229.9609,150.5,233.9609,160.5,237.9609,156.5,233.9609" style="stroke: #A80036; stroke-width: 1.0;"/><line style="stroke: #A80036; stroke-width: 1.0; stroke-dasharray: 2.0,2.0;" x1="154.5" x2="257.5" y1="233.9609" y2="233.9609"/><text fill="#000000" font-family="sans-serif" font-size="13" lengthAdjust="spacingAndGlyphs" textLength="85" x="166.5" y="228.895">return Status</text><polygon fill="#A80036" points="41.5,259.0938,31.5,263.0938,41.5,267.0938,37.5,263.0938" style="stroke: #A80036; stroke-width: 1.0;"/><line style="stroke: #A80036; stroke-width: 1.0; stroke-dasharray: 2.0,2.0;" x1="35.5" x2="148.5" y1="263.0938" y2="263.0938"/><text fill="#000000" font-family="sans-serif" font-size="13" lengthAdjust="spacingAndGlyphs" textLength="42" x="47.5" y="258.0278">Status</text><!--MD5=[4cb0482c5be60e558626565782f04501]
@startuml
actor Client
participant DB
participant DBImpl
participant WAL
participant MemTable

Client -> DB: Put(key, value)
DB -> DBImpl: Put(...)
DBImpl -> WAL: Append(record)
DBImpl -> MemTable: Add(key, value)
DBImpl - -> DB: return Status
DB - -> Client: Status
@enduml

PlantUML version 1.2020.02(Sun Mar 01 15:52:07 IST 2020)
(GPL source distribution)
Java Runtime: OpenJDK Runtime Environment
JVM: OpenJDK 64-Bit Server VM
Java Version: 11.0.28+6-post-Ubuntu-1ubuntu122.04.1
Operating System: Linux
Default Encoding: UTF-8
Language: en
Country: null
--></g></svg>