<?xml version="1.0" encoding="UTF-8" standalone="no"?><svg xmlns="http://www.w3.org/2000/svg" xmlns:xlink="http://www.w3.org/1999/xlink" contentScriptType="application/ecmascript" contentStyleType="text/css" height="298px" preserveAspectRatio="none" style="width:740px;height:298px;" version="1.1" viewBox="0 0 740 298" width="740px" zoomAndPan="magnify"><defs><filter height="300%" id="f1es6d95e54foe" width="300%" x="-1" y="-1"><feGaussianBlur result="blurOut" stdDeviation="2.0"/><feColorMatrix in="blurOut" result="blurOut2" type="matrix" values="0 0 0 0 0 0 0 0 0 0 0 0 0 0 0 0 0 0 .4 0"/><feOffset dx="4.0" dy="4.0" in="blurOut2" result="blurOut3"/><feBlend in="SourceGraphic" in2="blurOut3" mode="normal"/></filter></defs><g><!--MD5=[0a671cc055fd1603f6722f13d8e25431]
cluster Public API (include/leveldb)--><polygon fill="#FFFFFF" filter="url(#f1es6d95e54foe)" points="22,24,241,24,248,46.2969,718,46.2969,718,286,22,286,22,24" style="stroke: #000000; stroke-width: 1.5;"/><line style="stroke: #000000; stroke-width: 1.5;" x1="22" x2="248" y1="46.2969" y2="46.2969"/><text fill="#000000" font-family="sans-serif" font-size="14" font-weight="bold" lengthAdjust="spacingAndGlyphs" textLength="213" x="26" y="38.9951">Public API (include/leveldb)</text><!--MD5=[62db8e4c2d9e0408f5650e8d9a685ff5]
class DB--><rect fill="#FEFECE" filter="url(#f1es6d95e54foe)" height="86.4141" id="DB" style="stroke: #A80036; stroke-width: 1.5;" width="370" x="38" y="59"/><ellipse cx="210.25" cy="75" fill="#ADD1B2" rx="11" ry="11" style="stroke: #A80036; stroke-width: 1.0;"/><path d="M213.2188,80.6406 Q212.6406,80.9375 212,81.0781 Q211.3594,81.2344 210.6563,81.2344 Q208.1563,81.2344 206.8281,79.5938 Q205.5156,77.9375 205.5156,74.8125 Q205.5156,71.6875 206.8281,70.0313 Q208.1563,68.375 210.6563,68.375 Q211.3594,68.375 212,68.5313 Q212.6563,68.6875 213.2188,68.9844 L213.2188,71.7031 Q212.5938,71.125 212,70.8594 Q211.4063,70.5781 210.7813,70.5781 Q209.4375,70.5781 208.75,71.6563 Q208.0625,72.7188 208.0625,74.8125 Q208.0625,76.9063 208.75,77.9844 Q209.4375,79.0469 210.7813,79.0469 Q211.4063,79.0469 212,78.7813 Q212.5938,78.5 213.2188,77.9219 L213.2188,80.6406 Z "/><text fill="#000000" font-family="sans-serif" font-size="12" lengthAdjust="spacingAndGlyphs" textLength="17" x="230.75" y="79.1543">DB</text><line style="stroke: #A80036; stroke-width: 1.5;" x1="39" x2="407" y1="91" y2="91"/><line style="stroke: #A80036; stroke-width: 1.5;" x1="39" x2="407" y1="99" y2="99"/><ellipse cx="49" cy="110" fill="#84BE84" rx="3" ry="3" style="stroke: #038048; stroke-width: 1.0;"/><text fill="#000000" font-family="sans-serif" font-size="11" lengthAdjust="spacingAndGlyphs" textLength="316" x="58" y="113.2104">Status Open(const Options&amp;, const std::string&amp;, DB**)</text><ellipse cx="49" cy="122.8047" fill="#84BE84" rx="3" ry="3" style="stroke: #038048; stroke-width: 1.0;"/><text fill="#000000" font-family="sans-serif" font-size="11" lengthAdjust="spacingAndGlyphs" textLength="344" x="58" y="126.0151">Status Put(const WriteOptions&amp;, const Slice&amp;, const Slice&amp;)</text><ellipse cx="49" cy="135.6094" fill="#84BE84" rx="3" ry="3" style="stroke: #038048; stroke-width: 1.0;"/><text fill="#000000" font-family="sans-serif" font-size="11" lengthAdjust="spacingAndGlyphs" textLength="339" x="58" y="138.8198">Status Get(const ReadOptions&amp;, const Slice&amp;, std::string*)</text><!--MD5=[a4867f0f4834f6ea89f520c5b0c00377]
class Options--><rect fill="#FEFECE" filter="url(#f1es6d95e54foe)" height="48" id="Options" style="stroke: #A80036; stroke-width: 1.5;" width="80" x="68" y="222"/><ellipse cx="83" cy="238" fill="#ADD1B2" rx="11" ry="11" style="stroke: #A80036; stroke-width: 1.0;"/><path d="M85.9688,243.6406 Q85.3906,243.9375 84.75,244.0781 Q84.1094,244.2344 83.4063,244.2344 Q80.9063,244.2344 79.5781,242.5938 Q78.2656,240.9375 78.2656,237.8125 Q78.2656,234.6875 79.5781,233.0313 Q80.9063,231.375 83.4063,231.375 Q84.1094,231.375 84.75,231.5313 Q85.4063,231.6875 85.9688,231.9844 L85.9688,234.7031 Q85.3438,234.125 84.75,233.8594 Q84.1563,233.5781 83.5313,233.5781 Q82.1875,233.5781 81.5,234.6563 Q80.8125,235.7188 80.8125,237.8125 Q80.8125,239.9063 81.5,240.9844 Q82.1875,242.0469 83.5313,242.0469 Q84.1563,242.0469 84.75,241.7813 Q85.3438,241.5 85.9688,240.9219 L85.9688,243.6406 Z "/><text fill="#000000" font-family="sans-serif" font-size="12" lengthAdjust="spacingAndGlyphs" textLength="48" x="97" y="242.1543">Options</text><line style="stroke: #A80036; stroke-width: 1.5;" x1="69" x2="147" y1="254" y2="254"/><line style="stroke: #A80036; stroke-width: 1.5;" x1="69" x2="147" y1="262" y2="262"/><!--MD5=[9ad112d267e36d0d153b5393d9ed5bf9]
class ReadOptions--><rect fill="#FEFECE" filter="url(#f1es6d95e54foe)" height="48" id="ReadOptions" style="stroke: #A80036; stroke-width: 1.5;" width="112" x="443" y="78"/><ellipse cx="458" cy="94" fill="#ADD1B2" rx="11" ry="11" style="stroke: #A80036; stroke-width: 1.0;"/><path d="M460.9688,99.6406 Q460.3906,99.9375 459.75,100.0781 Q459.1094,100.2344 458.4063,100.2344 Q455.9063,100.2344 454.5781,98.5938 Q453.2656,96.9375 453.2656,93.8125 Q453.2656,90.6875 454.5781,89.0313 Q455.9063,87.375 458.4063,87.375 Q459.1094,87.375 459.75,87.5313 Q460.4063,87.6875 460.9688,87.9844 L460.9688,90.7031 Q460.3438,90.125 459.75,89.8594 Q459.1563,89.5781 458.5313,89.5781 Q457.1875,89.5781 456.5,90.6563 Q455.8125,91.7188 455.8125,93.8125 Q455.8125,95.9063 456.5,96.9844 Q457.1875,98.0469 458.5313,98.0469 Q459.1563,98.0469 459.75,97.7813 Q460.3438,97.5 460.9688,96.9219 L460.9688,99.6406 Z "/><text fill="#000000" font-family="sans-serif" font-size="12" lengthAdjust="spacingAndGlyphs" textLength="80" x="472" y="98.1543">ReadOptions</text><line style="stroke: #A80036; stroke-width: 1.5;" x1="444" x2="554" y1="110" y2="110"/><line style="stroke: #A80036; stroke-width: 1.5;" x1="444" x2="554" y1="118" y2="118"/><!--MD5=[a7e4de54f1433ec7949fedec1850bcba]
class WriteOptions--><rect fill="#FEFECE" filter="url(#f1es6d95e54foe)" height="48" id="WriteOptions" style="stroke: #A80036; stroke-width: 1.5;" width="112" x="590" y="78"/><ellipse cx="605" cy="94" fill="#ADD1B2" rx="11" ry="11" style="stroke: #A80036; stroke-width: 1.0;"/><path d="M607.9688,99.6406 Q607.3906,99.9375 606.75,100.0781 Q606.1094,100.2344 605.4063,100.2344 Q602.9063,100.2344 601.5781,98.5938 Q600.2656,96.9375 600.2656,93.8125 Q600.2656,90.6875 601.5781,89.0313 Q602.9063,87.375 605.4063,87.375 Q606.1094,87.375 606.75,87.5313 Q607.4063,87.6875 607.9688,87.9844 L607.9688,90.7031 Q607.3438,90.125 606.75,89.8594 Q606.1563,89.5781 605.5313,89.5781 Q604.1875,89.5781 603.5,90.6563 Q602.8125,91.7188 602.8125,93.8125 Q602.8125,95.9063 603.5,96.9844 Q604.1875,98.0469 605.5313,98.0469 Q606.1563,98.0469 606.75,97.7813 Q607.3438,97.5 607.9688,96.9219 L607.9688,99.6406 Z "/><text fill="#000000" font-family="sans-serif" font-size="12" lengthAdjust="spacingAndGlyphs" textLength="80" x="619" y="98.1543">WriteOptions</text><line style="stroke: #A80036; stroke-width: 1.5;" x1="591" x2="701" y1="110" y2="110"/><line style="stroke: #A80036; stroke-width: 1.5;" x1="591" x2="701" y1="118" y2="118"/><!--MD5=[023ecf6702e3ca2ce47ae747eafb20f1]
class Iterator--><rect fill="#FEFECE" filter="url(#f1es6d95e54foe)" height="48" id="Iterator" style="stroke: #A80036; stroke-width: 1.5;" width="79" x="183.5" y="222"/><ellipse cx="198.5" cy="238" fill="#ADD1B2" rx="11" ry="11" style="stroke: #A80036; stroke-width: 1.0;"/><path d="M201.4688,243.6406 Q200.8906,243.9375 200.25,244.0781 Q199.6094,244.2344 198.9063,244.2344 Q196.4063,244.2344 195.0781,242.5938 Q193.7656,240.9375 193.7656,237.8125 Q193.7656,234.6875 195.0781,233.0313 Q196.4063,231.375 198.9063,231.375 Q199.6094,231.375 200.25,231.5313 Q200.9063,231.6875 201.4688,231.9844 L201.4688,234.7031 Q200.8438,234.125 200.25,233.8594 Q199.6563,233.5781 199.0313,233.5781 Q197.6875,233.5781 197,234.6563 Q196.3125,235.7188 196.3125,237.8125 Q196.3125,239.9063 197,240.9844 Q197.6875,242.0469 199.0313,242.0469 Q199.6563,242.0469 200.25,241.7813 Q200.8438,241.5 201.4688,240.9219 L201.4688,243.6406 Z "/><text fill="#000000" font-family="sans-serif" font-size="12" lengthAdjust="spacingAndGlyphs" textLength="47" x="212.5" y="242.1543">Iterator</text><line style="stroke: #A80036; stroke-width: 1.5;" x1="184.5" x2="261.5" y1="254" y2="254"/><line style="stroke: #A80036; stroke-width: 1.5;" x1="184.5" x2="261.5" y1="262" y2="262"/><!--MD5=[e3d83ec5fd90ea9f3f2bfe265cb53458]
class Status--><rect fill="#FEFECE" filter="url(#f1es6d95e54foe)" height="48" id="Status" style="stroke: #A80036; stroke-width: 1.5;" width="73" x="297.5" y="222"/><ellipse cx="312.5" cy="238" fill="#ADD1B2" rx="11" ry="11" style="stroke: #A80036; stroke-width: 1.0;"/><path d="M315.4688,243.6406 Q314.8906,243.9375 314.25,244.0781 Q313.6094,244.2344 312.9063,244.2344 Q310.4063,244.2344 309.0781,242.5938 Q307.7656,240.9375 307.7656,237.8125 Q307.7656,234.6875 309.0781,233.0313 Q310.4063,231.375 312.9063,231.375 Q313.6094,231.375 314.25,231.5313 Q314.9063,231.6875 315.4688,231.9844 L315.4688,234.7031 Q314.8438,234.125 314.25,233.8594 Q313.6563,233.5781 313.0313,233.5781 Q311.6875,233.5781 311,234.6563 Q310.3125,235.7188 310.3125,237.8125 Q310.3125,239.9063 311,240.9844 Q311.6875,242.0469 313.0313,242.0469 Q313.6563,242.0469 314.25,241.7813 Q314.8438,241.5 315.4688,240.9219 L315.4688,243.6406 Z "/><text fill="#000000" font-family="sans-serif" font-size="12" lengthAdjust="spacingAndGlyphs" textLength="41" x="326.5" y="242.1543">Status</text><line style="stroke: #A80036; stroke-width: 1.5;" x1="298.5" x2="369.5" y1="254" y2="254"/><line style="stroke: #A80036; stroke-width: 1.5;" x1="298.5" x2="369.5" y1="262" y2="262"/><!--MD5=[caad25907589e7bebe38762f5741c36d]
class Slice--><rect fill="#FEFECE" filter="url(#f1es6d95e54foe)" height="48" id="Slice" style="stroke: #A80036; stroke-width: 1.5;" width="61" x="468.5" y="222"/><ellipse cx="483.5" cy="238" fill="#ADD1B2" rx="11" ry="11" style="stroke: #A80036; stroke-width: 1.0;"/><path d="M486.4688,243.6406 Q485.8906,243.9375 485.25,244.0781 Q484.6094,244.2344 483.9063,244.2344 Q481.4063,244.2344 480.0781,242.5938 Q478.7656,240.9375 478.7656,237.8125 Q478.7656,234.6875 480.0781,233.0313 Q481.4063,231.375 483.9063,231.375 Q484.6094,231.375 485.25,231.5313 Q485.9063,231.6875 486.4688,231.9844 L486.4688,234.7031 Q485.8438,234.125 485.25,233.8594 Q484.6563,233.5781 484.0313,233.5781 Q482.6875,233.5781 482,234.6563 Q481.3125,235.7188 481.3125,237.8125 Q481.3125,239.9063 482,240.9844 Q482.6875,242.0469 484.0313,242.0469 Q484.6563,242.0469 485.25,241.7813 Q485.8438,241.5 486.4688,240.9219 L486.4688,243.6406 Z "/><text fill="#000000" font-family="sans-serif" font-size="12" lengthAdjust="spacingAndGlyphs" textLength="29" x="497.5" y="242.1543">Slice</text><line style="stroke: #A80036; stroke-width: 1.5;" x1="469.5" x2="528.5" y1="254" y2="254"/><line style="stroke: #A80036; stroke-width: 1.5;" x1="469.5" x2="528.5" y1="262" y2="262"/><!--MD5=[682b889c16ae79148071cb33c46de609]
link DB to Iterator--><path d="M223,145.22 C223,168.28 223,196.22 223,216.66 " fill="none" id="DB-&gt;Iterator" style="stroke: #A80036; stroke-width: 1.0;"/><polygon fill="#A80036" points="223,221.69,227,212.69,223,216.69,219,212.69,223,221.69" style="stroke: #A80036; stroke-width: 1.0;"/><text fill="#000000" font-family="sans-serif" font-size="13" lengthAdjust="spacingAndGlyphs" textLength="46" x="224" y="188.0669">returns</text><polygon fill="#000000" points="242.5,197.1328,245.5,203.1328,248.5,197.1328,242.5,197.1328" style="stroke: #000000; stroke-width: 1.0;"/><!--MD5=[594cec8b1334cf33b0cd10043d8bd320]
link DB to Status--><path d="M266.61,145.38 C275.42,154.79 284.33,164.96 292,175 C302.12,188.26 311.82,204.12 319.34,217.39 " fill="none" id="DB-&gt;Status" style="stroke: #A80036; stroke-width: 1.0;"/><polygon fill="#A80036" points="321.8,221.78,320.8877,211.9735,319.3548,217.4187,313.9096,215.8858,321.8,221.78" style="stroke: #A80036; stroke-width: 1.0;"/><!--MD5=[0883ebf9b30411cd979fff37b263eddf]
link DB to Options--><path d="M188.81,145.22 C169.81,168.67 146.74,197.17 130.11,217.69 " fill="none" id="DB-&gt;Options" style="stroke: #A80036; stroke-width: 1.0;"/><polygon fill="#A80036" points="126.88,221.69,135.6678,217.2432,130.04,217.8151,129.468,212.1873,126.88,221.69" style="stroke: #A80036; stroke-width: 1.0;"/><!--MD5=[c239f9c40a2b7dc73929a24c11fbdd5c]
link ReadOptions to WriteOptions--><!--MD5=[b266c995b5067bd0be8df4e51226b9e5]
link ReadOptions to Slice--><!--MD5=[fb37eee4bdf317a2b9541c4317b5e45d]
@startuml
package "Public API (include/leveldb)" {
  class DB {
    +Status Open(const Options&, const std::string&, DB**)
    +Status Put(const WriteOptions&, const Slice&, const Slice&)
    +Status Get(const ReadOptions&, const Slice&, std::string*)
  }

  class Options
  class ReadOptions
  class WriteOptions
  class Iterator
  class Status
  class Slice
}

DB - -> Iterator : returns >
DB - -> Status
DB - -> Options
@enduml

PlantUML version 1.2020.02(Sun Mar 01 15:52:07 IST 2020)
(GPL source distribution)
Java Runtime: OpenJDK Runtime Environment
JVM: OpenJDK 64-Bit Server VM
Java Version: 11.0.28+6-post-Ubuntu-1ubuntu122.04.1
Operating System: Linux
Default Encoding: UTF-8
Language: en
Country: null
--></g></svg>