<?xml version="1.0" encoding="UTF-8" standalone="no"?><svg xmlns="http://www.w3.org/2000/svg" xmlns:xlink="http://www.w3.org/1999/xlink" contentScriptType="application/ecmascript" contentStyleType="text/css" height="403px" preserveAspectRatio="none" style="width:371px;height:403px;" version="1.1" viewBox="0 0 371 403" width="371px" zoomAndPan="magnify"><defs><filter height="300%" id="fjus59r8e7sb8" width="300%" x="-1" y="-1"><feGaussianBlur result="blurOut" stdDeviation="2.0"/><feColorMatrix in="blurOut" result="blurOut2" type="matrix" values="0 0 0 0 0 0 0 0 0 0 0 0 0 0 0 0 0 0 .4 0"/><feOffset dx="4.0" dy="4.0" in="blurOut2" result="blurOut3"/><feBlend in="SourceGraphic" in2="blurOut3" mode="normal"/></filter></defs><g><!--MD5=[afff0ed99e218be8e1a29b3438bea82b]
cluster table (SSTable module)--><polygon fill="#FFFFFF" filter="url(#fjus59r8e7sb8)" points="22,24,210,24,217,46.2969,349,46.2969,349,391,22,391,22,24" style="stroke: #000000; stroke-width: 1.5;"/><line style="stroke: #000000; stroke-width: 1.5;" x1="22" x2="217" y1="46.2969" y2="46.2969"/><text fill="#000000" font-family="sans-serif" font-size="14" font-weight="bold" lengthAdjust="spacingAndGlyphs" textLength="182" x="26" y="38.9951">table (SSTable module)</text><!--MD5=[c0b936abb008b3271898d4186b5531e4]
class Table--><rect fill="#FEFECE" filter="url(#fjus59r8e7sb8)" height="73.6094" id="Table" style="stroke: #A80036; stroke-width: 1.5;" width="152" x="38" y="193"/><ellipse cx="92.75" cy="209" fill="#ADD1B2" rx="11" ry="11" style="stroke: #A80036; stroke-width: 1.0;"/><path d="M95.7188,214.6406 Q95.1406,214.9375 94.5,215.0781 Q93.8594,215.2344 93.1563,215.2344 Q90.6563,215.2344 89.3281,213.5938 Q88.0156,211.9375 88.0156,208.8125 Q88.0156,205.6875 89.3281,204.0313 Q90.6563,202.375 93.1563,202.375 Q93.8594,202.375 94.5,202.5313 Q95.1563,202.6875 95.7188,202.9844 L95.7188,205.7031 Q95.0938,205.125 94.5,204.8594 Q93.9063,204.5781 93.2813,204.5781 Q91.9375,204.5781 91.25,205.6563 Q90.5625,206.7188 90.5625,208.8125 Q90.5625,210.9063 91.25,211.9844 Q91.9375,213.0469 93.2813,213.0469 Q93.9063,213.0469 94.5,212.7813 Q95.0938,212.5 95.7188,211.9219 L95.7188,214.6406 Z "/><text fill="#000000" font-family="sans-serif" font-size="12" lengthAdjust="spacingAndGlyphs" textLength="34" x="113.25" y="213.1543">Table</text><line style="stroke: #A80036; stroke-width: 1.5;" x1="39" x2="189" y1="225" y2="225"/><line style="stroke: #A80036; stroke-width: 1.5;" x1="39" x2="189" y1="233" y2="233"/><ellipse cx="49" cy="244" fill="#84BE84" rx="3" ry="3" style="stroke: #038048; stroke-width: 1.0;"/><text fill="#000000" font-family="sans-serif" font-size="11" lengthAdjust="spacingAndGlyphs" textLength="91" x="58" y="247.2104">Status Open(...)</text><ellipse cx="49" cy="256.8047" fill="#84BE84" rx="3" ry="3" style="stroke: #038048; stroke-width: 1.0;"/><text fill="#000000" font-family="sans-serif" font-size="11" lengthAdjust="spacingAndGlyphs" textLength="126" x="58" y="260.0151">Iterator* NewIterator()</text><!--MD5=[17ddf46247c291617920d297554f609b]
class TableBuilder--><rect fill="#FEFECE" filter="url(#fjus59r8e7sb8)" height="73.6094" id="TableBuilder" style="stroke: #A80036; stroke-width: 1.5;" width="112" x="221" y="59"/><ellipse cx="237.35" cy="75" fill="#ADD1B2" rx="11" ry="11" style="stroke: #A80036; stroke-width: 1.0;"/><path d="M240.3188,80.6406 Q239.7406,80.9375 239.1,81.0781 Q238.4594,81.2344 237.7563,81.2344 Q235.2563,81.2344 233.9281,79.5938 Q232.6156,77.9375 232.6156,74.8125 Q232.6156,71.6875 233.9281,70.0313 Q235.2563,68.375 237.7563,68.375 Q238.4594,68.375 239.1,68.5313 Q239.7563,68.6875 240.3188,68.9844 L240.3188,71.7031 Q239.6938,71.125 239.1,70.8594 Q238.5063,70.5781 237.8813,70.5781 Q236.5375,70.5781 235.85,71.6563 Q235.1625,72.7188 235.1625,74.8125 Q235.1625,76.9063 235.85,77.9844 Q236.5375,79.0469 237.8813,79.0469 Q238.5063,79.0469 239.1,78.7813 Q239.6938,78.5 240.3188,77.9219 L240.3188,80.6406 Z "/><text fill="#000000" font-family="sans-serif" font-size="12" lengthAdjust="spacingAndGlyphs" textLength="77" x="251.65" y="79.1543">TableBuilder</text><line style="stroke: #A80036; stroke-width: 1.5;" x1="222" x2="332" y1="91" y2="91"/><line style="stroke: #A80036; stroke-width: 1.5;" x1="222" x2="332" y1="99" y2="99"/><ellipse cx="232" cy="110" fill="#84BE84" rx="3" ry="3" style="stroke: #038048; stroke-width: 1.0;"/><text fill="#000000" font-family="sans-serif" font-size="11" lengthAdjust="spacingAndGlyphs" textLength="86" x="241" y="113.2104">Add(key, value)</text><ellipse cx="232" cy="122.8047" fill="#84BE84" rx="3" ry="3" style="stroke: #038048; stroke-width: 1.0;"/><text fill="#000000" font-family="sans-serif" font-size="11" lengthAdjust="spacingAndGlyphs" textLength="41" x="241" y="126.0151">Finish()</text><!--MD5=[68a0c021ad4fbab63794e91c3c368f48]
class Block--><rect fill="#FEFECE" filter="url(#fjus59r8e7sb8)" height="48" id="Block" style="stroke: #A80036; stroke-width: 1.5;" width="65" x="59.5" y="327"/><ellipse cx="74.5" cy="343" fill="#ADD1B2" rx="11" ry="11" style="stroke: #A80036; stroke-width: 1.0;"/><path d="M77.4688,348.6406 Q76.8906,348.9375 76.25,349.0781 Q75.6094,349.2344 74.9063,349.2344 Q72.4063,349.2344 71.0781,347.5938 Q69.7656,345.9375 69.7656,342.8125 Q69.7656,339.6875 71.0781,338.0313 Q72.4063,336.375 74.9063,336.375 Q75.6094,336.375 76.25,336.5313 Q76.9063,336.6875 77.4688,336.9844 L77.4688,339.7031 Q76.8438,339.125 76.25,338.8594 Q75.6563,338.5781 75.0313,338.5781 Q73.6875,338.5781 73,339.6563 Q72.3125,340.7188 72.3125,342.8125 Q72.3125,344.9063 73,345.9844 Q73.6875,347.0469 75.0313,347.0469 Q75.6563,347.0469 76.25,346.7813 Q76.8438,346.5 77.4688,345.9219 L77.4688,348.6406 Z "/><text fill="#000000" font-family="sans-serif" font-size="12" lengthAdjust="spacingAndGlyphs" textLength="33" x="88.5" y="347.1543">Block</text><line style="stroke: #A80036; stroke-width: 1.5;" x1="60.5" x2="123.5" y1="359" y2="359"/><line style="stroke: #A80036; stroke-width: 1.5;" x1="60.5" x2="123.5" y1="367" y2="367"/><!--MD5=[a287ee9191ab8547a4d439a570244410]
class BlockBuilder--><rect fill="#FEFECE" filter="url(#fjus59r8e7sb8)" height="48" id="BlockBuilder" style="stroke: #A80036; stroke-width: 1.5;" width="108" x="225" y="206"/><ellipse cx="240" cy="222" fill="#ADD1B2" rx="11" ry="11" style="stroke: #A80036; stroke-width: 1.0;"/><path d="M242.9688,227.6406 Q242.3906,227.9375 241.75,228.0781 Q241.1094,228.2344 240.4063,228.2344 Q237.9063,228.2344 236.5781,226.5938 Q235.2656,224.9375 235.2656,221.8125 Q235.2656,218.6875 236.5781,217.0313 Q237.9063,215.375 240.4063,215.375 Q241.1094,215.375 241.75,215.5313 Q242.4063,215.6875 242.9688,215.9844 L242.9688,218.7031 Q242.3438,218.125 241.75,217.8594 Q241.1563,217.5781 240.5313,217.5781 Q239.1875,217.5781 238.5,218.6563 Q237.8125,219.7188 237.8125,221.8125 Q237.8125,223.9063 238.5,224.9844 Q239.1875,226.0469 240.5313,226.0469 Q241.1563,226.0469 241.75,225.7813 Q242.3438,225.5 242.9688,224.9219 L242.9688,227.6406 Z "/><text fill="#000000" font-family="sans-serif" font-size="12" lengthAdjust="spacingAndGlyphs" textLength="76" x="254" y="226.1543">BlockBuilder</text><line style="stroke: #A80036; stroke-width: 1.5;" x1="226" x2="332" y1="238" y2="238"/><line style="stroke: #A80036; stroke-width: 1.5;" x1="226" x2="332" y1="246" y2="246"/><!--MD5=[9ccdd862b13e5d49186df3d82e9ff7d1]
class FilterBlock--><rect fill="#FEFECE" filter="url(#fjus59r8e7sb8)" height="48" id="FilterBlock" style="stroke: #A80036; stroke-width: 1.5;" width="96" x="160" y="327"/><ellipse cx="175" cy="343" fill="#ADD1B2" rx="11" ry="11" style="stroke: #A80036; stroke-width: 1.0;"/><path d="M177.9688,348.6406 Q177.3906,348.9375 176.75,349.0781 Q176.1094,349.2344 175.4063,349.2344 Q172.9063,349.2344 171.5781,347.5938 Q170.2656,345.9375 170.2656,342.8125 Q170.2656,339.6875 171.5781,338.0313 Q172.9063,336.375 175.4063,336.375 Q176.1094,336.375 176.75,336.5313 Q177.4063,336.6875 177.9688,336.9844 L177.9688,339.7031 Q177.3438,339.125 176.75,338.8594 Q176.1563,338.5781 175.5313,338.5781 Q174.1875,338.5781 173.5,339.6563 Q172.8125,340.7188 172.8125,342.8125 Q172.8125,344.9063 173.5,345.9844 Q174.1875,347.0469 175.5313,347.0469 Q176.1563,347.0469 176.75,346.7813 Q177.3438,346.5 177.9688,345.9219 L177.9688,348.6406 Z "/><text fill="#000000" font-family="sans-serif" font-size="12" lengthAdjust="spacingAndGlyphs" textLength="64" x="189" y="347.1543">FilterBlock</text><line style="stroke: #A80036; stroke-width: 1.5;" x1="161" x2="255" y1="359" y2="359"/><line style="stroke: #A80036; stroke-width: 1.5;" x1="161" x2="255" y1="367" y2="367"/><!--MD5=[3c98844a38bbe7a583aaec7e1d054465]
class TableCache--><rect fill="#FEFECE" filter="url(#fjus59r8e7sb8)" height="48" id="TableCache" style="stroke: #A80036; stroke-width: 1.5;" width="105" x="61.5" y="72"/><ellipse cx="76.5" cy="88" fill="#ADD1B2" rx="11" ry="11" style="stroke: #A80036; stroke-width: 1.0;"/><path d="M79.4688,93.6406 Q78.8906,93.9375 78.25,94.0781 Q77.6094,94.2344 76.9063,94.2344 Q74.4063,94.2344 73.0781,92.5938 Q71.7656,90.9375 71.7656,87.8125 Q71.7656,84.6875 73.0781,83.0313 Q74.4063,81.375 76.9063,81.375 Q77.6094,81.375 78.25,81.5313 Q78.9063,81.6875 79.4688,81.9844 L79.4688,84.7031 Q78.8438,84.125 78.25,83.8594 Q77.6563,83.5781 77.0313,83.5781 Q75.6875,83.5781 75,84.6563 Q74.3125,85.7188 74.3125,87.8125 Q74.3125,89.9063 75,90.9844 Q75.6875,92.0469 77.0313,92.0469 Q77.6563,92.0469 78.25,91.7813 Q78.8438,91.5 79.4688,90.9219 L79.4688,93.6406 Z "/><text fill="#000000" font-family="sans-serif" font-size="12" lengthAdjust="spacingAndGlyphs" textLength="73" x="90.5" y="92.1543">TableCache</text><line style="stroke: #A80036; stroke-width: 1.5;" x1="62.5" x2="165.5" y1="104" y2="104"/><line style="stroke: #A80036; stroke-width: 1.5;" x1="62.5" x2="165.5" y1="112" y2="112"/><!--MD5=[4301287280f76807aec1407bc69aff57]
link Table to Block--><path d="M107.34,267.03 C104.08,284.63 100.23,305.51 97.19,321.91 " fill="none" id="Table-&gt;Block" style="stroke: #A80036; stroke-width: 1.0;"/><polygon fill="#A80036" points="96.28,326.85,101.8359,318.7178,97.1807,321.9318,93.9667,317.2767,96.28,326.85" style="stroke: #A80036; stroke-width: 1.0;"/><!--MD5=[bdedcb611cd912e2256b9c7132b936a4]
link TableBuilder to BlockBuilder--><path d="M277.55,133.07 C277.87,154.37 278.27,180.95 278.57,200.73 " fill="none" id="TableBuilder-&gt;BlockBuilder" style="stroke: #A80036; stroke-width: 1.0;"/><polygon fill="#A80036" points="278.65,205.86,282.521,196.8038,278.5786,200.8605,274.5218,196.9181,278.65,205.86" style="stroke: #A80036; stroke-width: 1.0;"/><!--MD5=[af9575ce656e345088bf944c8d22e099]
link Table to FilterBlock--><path d="M142.46,267.03 C156.61,284.94 173.42,306.23 186.48,322.76 " fill="none" id="Table-&gt;FilterBlock" style="stroke: #A80036; stroke-width: 1.0;"/><polygon fill="#A80036" points="189.71,326.85,187.275,317.3069,186.6127,322.9249,180.9948,322.2626,189.71,326.85" style="stroke: #A80036; stroke-width: 1.0;"/><!--MD5=[422cc008fd10f92a470218665e2cd0c1]
link TableCache to Table--><path d="M114,120.3 C114,138.86 114,165.34 114,187.51 " fill="none" id="TableCache-&gt;Table" style="stroke: #A80036; stroke-width: 1.0;"/><polygon fill="#A80036" points="114,192.75,118,183.75,114,187.75,110,183.75,114,192.75" style="stroke: #A80036; stroke-width: 1.0;"/><!--MD5=[ad7b1e2f282de812d4d7aaeb20ea8603]
@startuml
package "table (SSTable module)" {
  class Table {
    +Status Open(...)
    +Iterator* NewIterator()
  }
  class TableBuilder {
    +Add(key, value)
    +Finish()
  }
  class Block
  class BlockBuilder
  class FilterBlock
  class TableCache
}

Table - -> Block
TableBuilder - -> BlockBuilder
Table - -> FilterBlock
TableCache - -> Table
@enduml

PlantUML version 1.2020.02(Sun Mar 01 15:52:07 IST 2020)
(GPL source distribution)
Java Runtime: OpenJDK Runtime Environment
JVM: OpenJDK 64-Bit Server VM
Java Version: 11.0.28+6-post-Ubuntu-1ubuntu122.04.1
Operating System: Linux
Default Encoding: UTF-8
Language: en
Country: null
--></g></svg>