<?xml version="1.0" encoding="UTF-8" standalone="no"?><svg xmlns="http://www.w3.org/2000/svg" xmlns:xlink="http://www.w3.org/1999/xlink" contentScriptType="application/ecmascript" contentStyleType="text/css" height="411px" preserveAspectRatio="none" style="width:443px;height:411px;" version="1.1" viewBox="0 0 443 411" width="443px" zoomAndPan="magnify"><defs><filter height="300%" id="f1s7fl9rpb2xkc" width="300%" x="-1" y="-1"><feGaussianBlur result="blurOut" stdDeviation="2.0"/><feColorMatrix in="blurOut" result="blurOut2" type="matrix" values="0 0 0 0 0 0 0 0 0 0 0 0 0 0 0 0 0 0 .4 0"/><feOffset dx="4.0" dy="4.0" in="blurOut2" result="blurOut3"/><feBlend in="SourceGraphic" in2="blurOut3" mode="normal"/></filter></defs><g><!--MD5=[6f45194698d955ff5aa27fdbb2d8d4e3]
cluster util (Utilities)--><polygon fill="#FFFFFF" filter="url(#f1s7fl9rpb2xkc)" points="22,24,127,24,134,46.2969,421,46.2969,421,399,22,399,22,24" style="stroke: #000000; stroke-width: 1.5;"/><line style="stroke: #000000; stroke-width: 1.5;" x1="22" x2="134" y1="46.2969" y2="46.2969"/><text fill="#000000" font-family="sans-serif" font-size="14" font-weight="bold" lengthAdjust="spacingAndGlyphs" textLength="99" x="26" y="38.9951">util (Utilities)</text><!--MD5=[1c83dbccf5d3e47e0260a685829c9639]
class Env--><rect fill="#FEFECE" filter="url(#f1s7fl9rpb2xkc)" height="73.6094" id="Env" style="stroke: #A80036; stroke-width: 1.5;" width="236" x="169" y="59"/><ellipse cx="271.75" cy="75" fill="#ADD1B2" rx="11" ry="11" style="stroke: #A80036; stroke-width: 1.0;"/><path d="M274.7188,80.6406 Q274.1406,80.9375 273.5,81.0781 Q272.8594,81.2344 272.1563,81.2344 Q269.6563,81.2344 268.3281,79.5938 Q267.0156,77.9375 267.0156,74.8125 Q267.0156,71.6875 268.3281,70.0313 Q269.6563,68.375 272.1563,68.375 Q272.8594,68.375 273.5,68.5313 Q274.1563,68.6875 274.7188,68.9844 L274.7188,71.7031 Q274.0938,71.125 273.5,70.8594 Q272.9063,70.5781 272.2813,70.5781 Q270.9375,70.5781 270.25,71.6563 Q269.5625,72.7188 269.5625,74.8125 Q269.5625,76.9063 270.25,77.9844 Q270.9375,79.0469 272.2813,79.0469 Q272.9063,79.0469 273.5,78.7813 Q274.0938,78.5 274.7188,77.9219 L274.7188,80.6406 Z "/><text fill="#000000" font-family="sans-serif" font-size="12" lengthAdjust="spacingAndGlyphs" textLength="22" x="292.25" y="79.1543">Env</text><line style="stroke: #A80036; stroke-width: 1.5;" x1="170" x2="404" y1="91" y2="91"/><line style="stroke: #A80036; stroke-width: 1.5;" x1="170" x2="404" y1="99" y2="99"/><ellipse cx="180" cy="110" fill="#84BE84" rx="3" ry="3" style="stroke: #038048; stroke-width: 1.0;"/><text fill="#000000" font-family="sans-serif" font-size="11" lengthAdjust="spacingAndGlyphs" textLength="210" x="189" y="113.2104">Status NewWritableFile(name, result)</text><ellipse cx="180" cy="122.8047" fill="#84BE84" rx="3" ry="3" style="stroke: #038048; stroke-width: 1.0;"/><text fill="#000000" font-family="sans-serif" font-size="11" lengthAdjust="spacingAndGlyphs" textLength="136" x="189" y="126.0151">Status DeleteFile(name)</text><!--MD5=[09a9efd205ab816a167f673fd0d92907]
class EnvPosix--><rect fill="#FEFECE" filter="url(#f1s7fl9rpb2xkc)" height="48" id="EnvPosix" style="stroke: #A80036; stroke-width: 1.5;" width="86" x="107" y="210"/><ellipse cx="122" cy="226" fill="#ADD1B2" rx="11" ry="11" style="stroke: #A80036; stroke-width: 1.0;"/><path d="M124.9688,231.6406 Q124.3906,231.9375 123.75,232.0781 Q123.1094,232.2344 122.4063,232.2344 Q119.9063,232.2344 118.5781,230.5938 Q117.2656,228.9375 117.2656,225.8125 Q117.2656,222.6875 118.5781,221.0313 Q119.9063,219.375 122.4063,219.375 Q123.1094,219.375 123.75,219.5313 Q124.4063,219.6875 124.9688,219.9844 L124.9688,222.7031 Q124.3438,222.125 123.75,221.8594 Q123.1563,221.5781 122.5313,221.5781 Q121.1875,221.5781 120.5,222.6563 Q119.8125,223.7188 119.8125,225.8125 Q119.8125,227.9063 120.5,228.9844 Q121.1875,230.0469 122.5313,230.0469 Q123.1563,230.0469 123.75,229.7813 Q124.3438,229.5 124.9688,228.9219 L124.9688,231.6406 Z "/><text fill="#000000" font-family="sans-serif" font-size="12" lengthAdjust="spacingAndGlyphs" textLength="54" x="136" y="230.1543">EnvPosix</text><line style="stroke: #A80036; stroke-width: 1.5;" x1="108" x2="192" y1="242" y2="242"/><line style="stroke: #A80036; stroke-width: 1.5;" x1="108" x2="192" y1="250" y2="250"/><!--MD5=[2aed54b5619a9ca21467d0f509ab4e66]
class Coding--><rect fill="#FEFECE" filter="url(#f1s7fl9rpb2xkc)" height="48" id="Coding" style="stroke: #A80036; stroke-width: 1.5;" width="75" x="61.5" y="335"/><ellipse cx="76.5" cy="351" fill="#ADD1B2" rx="11" ry="11" style="stroke: #A80036; stroke-width: 1.0;"/><path d="M79.4688,356.6406 Q78.8906,356.9375 78.25,357.0781 Q77.6094,357.2344 76.9063,357.2344 Q74.4063,357.2344 73.0781,355.5938 Q71.7656,353.9375 71.7656,350.8125 Q71.7656,347.6875 73.0781,346.0313 Q74.4063,344.375 76.9063,344.375 Q77.6094,344.375 78.25,344.5313 Q78.9063,344.6875 79.4688,344.9844 L79.4688,347.7031 Q78.8438,347.125 78.25,346.8594 Q77.6563,346.5781 77.0313,346.5781 Q75.6875,346.5781 75,347.6563 Q74.3125,348.7188 74.3125,350.8125 Q74.3125,352.9063 75,353.9844 Q75.6875,355.0469 77.0313,355.0469 Q77.6563,355.0469 78.25,354.7813 Q78.8438,354.5 79.4688,353.9219 L79.4688,356.6406 Z "/><text fill="#000000" font-family="sans-serif" font-size="12" lengthAdjust="spacingAndGlyphs" textLength="43" x="90.5" y="355.1543">Coding</text><line style="stroke: #A80036; stroke-width: 1.5;" x1="62.5" x2="135.5" y1="367" y2="367"/><line style="stroke: #A80036; stroke-width: 1.5;" x1="62.5" x2="135.5" y1="375" y2="375"/><!--MD5=[b0da4f0ee767843584bb263e1fe5bedf]
class CRC32C--><rect fill="#FEFECE" filter="url(#f1s7fl9rpb2xkc)" height="48" id="CRC32C" style="stroke: #A80036; stroke-width: 1.5;" width="80" x="172" y="335"/><ellipse cx="187" cy="351" fill="#ADD1B2" rx="11" ry="11" style="stroke: #A80036; stroke-width: 1.0;"/><path d="M189.9688,356.6406 Q189.3906,356.9375 188.75,357.0781 Q188.1094,357.2344 187.4063,357.2344 Q184.9063,357.2344 183.5781,355.5938 Q182.2656,353.9375 182.2656,350.8125 Q182.2656,347.6875 183.5781,346.0313 Q184.9063,344.375 187.4063,344.375 Q188.1094,344.375 188.75,344.5313 Q189.4063,344.6875 189.9688,344.9844 L189.9688,347.7031 Q189.3438,347.125 188.75,346.8594 Q188.1563,346.5781 187.5313,346.5781 Q186.1875,346.5781 185.5,347.6563 Q184.8125,348.7188 184.8125,350.8125 Q184.8125,352.9063 185.5,353.9844 Q186.1875,355.0469 187.5313,355.0469 Q188.1563,355.0469 188.75,354.7813 Q189.3438,354.5 189.9688,353.9219 L189.9688,356.6406 Z "/><text fill="#000000" font-family="sans-serif" font-size="12" lengthAdjust="spacingAndGlyphs" textLength="48" x="201" y="355.1543">CRC32C</text><line style="stroke: #A80036; stroke-width: 1.5;" x1="173" x2="251" y1="367" y2="367"/><line style="stroke: #A80036; stroke-width: 1.5;" x1="173" x2="251" y1="375" y2="375"/><!--MD5=[00de62a80189558ee737a56f30d6cb8a]
class Histogram--><rect fill="#FEFECE" filter="url(#f1s7fl9rpb2xkc)" height="48" id="Histogram" style="stroke: #A80036; stroke-width: 1.5;" width="96" x="38" y="72"/><ellipse cx="53" cy="88" fill="#ADD1B2" rx="11" ry="11" style="stroke: #A80036; stroke-width: 1.0;"/><path d="M55.9688,93.6406 Q55.3906,93.9375 54.75,94.0781 Q54.1094,94.2344 53.4063,94.2344 Q50.9063,94.2344 49.5781,92.5938 Q48.2656,90.9375 48.2656,87.8125 Q48.2656,84.6875 49.5781,83.0313 Q50.9063,81.375 53.4063,81.375 Q54.1094,81.375 54.75,81.5313 Q55.4063,81.6875 55.9688,81.9844 L55.9688,84.7031 Q55.3438,84.125 54.75,83.8594 Q54.1563,83.5781 53.5313,83.5781 Q52.1875,83.5781 51.5,84.6563 Q50.8125,85.7188 50.8125,87.8125 Q50.8125,89.9063 51.5,90.9844 Q52.1875,92.0469 53.5313,92.0469 Q54.1563,92.0469 54.75,91.7813 Q55.3438,91.5 55.9688,90.9219 L55.9688,93.6406 Z "/><text fill="#000000" font-family="sans-serif" font-size="12" lengthAdjust="spacingAndGlyphs" textLength="64" x="67" y="92.1543">Histogram</text><line style="stroke: #A80036; stroke-width: 1.5;" x1="39" x2="133" y1="104" y2="104"/><line style="stroke: #A80036; stroke-width: 1.5;" x1="39" x2="133" y1="112" y2="112"/><!--MD5=[83a353246099b732b50fdec953cce907]
reverse link Env to EnvPosix--><path d="M247.42,149.07 C238.5,159.71 228.77,170.53 219,180 C208.04,190.62 194.99,201.11 183.21,209.92 " fill="none" id="Env&lt;-EnvPosix" style="stroke: #A80036; stroke-width: 1.0;"/><polygon fill="none" points="242.2,144.4,260.23,133.28,253.07,153.22,242.2,144.4" style="stroke: #A80036; stroke-width: 1.0;"/><!--MD5=[2a43487c2383c0693df025f926df3b9d]
link EnvPosix to CRC32C--><path d="M161.66,258.14 C172.01,278.67 187.15,308.69 198.12,330.46 " fill="none" id="EnvPosix-&gt;CRC32C" style="stroke: #A80036; stroke-width: 1.0;"/><polygon fill="#A80036" points="200.39,334.97,199.9176,325.1325,198.1425,330.5036,192.7714,328.7285,200.39,334.97" style="stroke: #A80036; stroke-width: 1.0;"/><text fill="#000000" font-family="sans-serif" font-size="13" lengthAdjust="spacingAndGlyphs" textLength="30" x="185" y="301.0669">uses</text><polygon fill="#000000" points="195.5,310.1328,198.5,316.1328,201.5,310.1328,195.5,310.1328" style="stroke: #000000; stroke-width: 1.0;"/><!--MD5=[7ad7fd4c4d735c509b371467015fa220]
link EnvPosix to Coding--><path d="M133.43,258.17 C127.59,267.15 121.39,277.74 117,288 C111.34,301.24 107.13,316.68 104.22,329.68 " fill="none" id="EnvPosix-&gt;Coding" style="stroke: #A80036; stroke-width: 1.0;"/><polygon fill="#A80036" points="103.13,334.72,108.9381,326.766,104.1845,329.8325,101.118,325.0788,103.13,334.72" style="stroke: #A80036; stroke-width: 1.0;"/><text fill="#000000" font-family="sans-serif" font-size="13" lengthAdjust="spacingAndGlyphs" textLength="30" x="118" y="301.0669">uses</text><polygon fill="#000000" points="128.5,310.1328,131.5,316.1328,134.5,310.1328,128.5,310.1328" style="stroke: #000000; stroke-width: 1.0;"/><!--MD5=[f53529ffc4af832881b4bef94ebc08e8]
link Histogram to EnvPosix--><path d="M96.86,120.07 C107.94,143.61 125.14,180.16 136.95,205.27 " fill="none" id="Histogram-&gt;EnvPosix" style="stroke: #A80036; stroke-width: 1.0;"/><polygon fill="#A80036" points="139.09,209.82,138.8696,199.9736,136.9576,205.2975,131.6336,203.3855,139.09,209.82" style="stroke: #A80036; stroke-width: 1.0;"/><text fill="#000000" font-family="sans-serif" font-size="13" lengthAdjust="spacingAndGlyphs" textLength="86" x="124" y="176.0669">metrics for IO</text><!--MD5=[3888c909d1d7ef73a7ac579c9ba07a6e]
@startuml
package "util (Utilities)" {
  class Env {
    +Status NewWritableFile(name, result)
    +Status DeleteFile(name)
  }
  class EnvPosix
  class Coding
  class CRC32C
  class Histogram
}

Env <|- - EnvPosix
EnvPosix - -> CRC32C : uses >
EnvPosix - -> Coding : uses >
Histogram - -> EnvPosix : metrics for IO
@enduml

PlantUML version 1.2020.02(Sun Mar 01 15:52:07 IST 2020)
(GPL source distribution)
Java Runtime: OpenJDK Runtime Environment
JVM: OpenJDK 64-Bit Server VM
Java Version: 11.0.28+6-post-Ubuntu-1ubuntu122.04.1
Operating System: Linux
Default Encoding: UTF-8
Language: en
Country: null
--></g></svg>